# xmcd
#
# Track frame offsets: 
#        150
#        15364
#        30781
#        43986
#        57716
#        69094
#        85761
#        100204
#        116537
#        131182
#        142070
#        155739
#        164805
#        176735
#        189146
#        199157
#        213249
#        227171
#        239717
#        252877
#
# Disc length: 3543 seconds
#
# Revision: 2
# Processed by: cddbd v1.5.2PL0 Copyright (c) Steve Scherf et al.
# Submitted via: ExactAudioCopyFreeDBPlugin 1.0
#
DISCID=1f0dd514
DTITLE=Verschiedene - Country Stars on CD [CD 3)
DYEAR=2004
DGENRE=Country
TTITLE0=Ricky Van Shelton - Life turned her that way
TTITLE1=David Frizzell and Coni - Le
TTITLE2=Tanya Tucker - The man that turned ma mama on
TTITLE3=Mel Street - Smokey mountain memories
TTITLE4=Marty Robbins - A white sport coat
TTITLE5=Johnny Cash - The gambler
TTITLE6=Jeannie Seely - Don´t touch me
TTITLE7=George Jones - Merle Haggerd - C.C. Waterback
TTITLE8=Mike Lunsford - Honey hungry
TTITLE9=Jack Greene - There goes ma everything
TTITLE10=Willie Nelson - Leon Russell - Heardbreak hotel
TTITLE11=Roger Miller - Chung-a-lug
TTITLE12=George Jones - Gene Pitney - My shoes keep walking back to yo
TTITLE12=u
TTITLE13=Cowboy Copas - Filipino baby
TTITLE14=Moon Mullican - I´ll sail ma ship alone
TTITLE15=Sandy Posey - Down to the river to pray
TTITLE16=Narvel Felts - Drift away
TTITLE17=Carl Smith - Are you teasing me
TTITLE18=Hawkshaw Hawkins - Sunny side of the mountian
TTITLE19=Stonewall Jackson - Don´t be angry
EXTD=
EXTT0=
EXTT1=
EXTT2=
EXTT3=
EXTT4=
EXTT5=
EXTT6=
EXTT7=
EXTT8=
EXTT9=
EXTT10=
EXTT11=
EXTT12=
EXTT13=
EXTT14=
EXTT15=
EXTT16=
EXTT17=
EXTT18=
EXTT19=
PLAYORDER=
